<?xml version="1.0" standalone="no"?>
<!DOCTYPE svg PUBLIC "-//W3C//DTD SVG 20010904//EN"
 "http://www.w3.org/TR/2001/REC-SVG-20010904/DTD/svg10.dtd">
<svg version="1.0" xmlns="http://www.w3.org/2000/svg"
 width="490.000000pt" height="490.000000pt" viewBox="0 0 490.000000 490.000000"
 preserveAspectRatio="xMidYMid meet">
<metadata>
Created by potrace 1.11, written by Peter Selinger 2001-2013
</metadata>
<g transform="translate(0.000000,490.000000) scale(0.100000,-0.100000)"
fill="#000000" stroke="none">
<path d="M2303 4569 c-420 -29 -864 -208 -1188 -481 -602 -506 -870 -1276
-714 -2053 124 -617 559 -1175 1134 -1456 652 -317 1423 -279 2037 102 216
134 488 381 488 444 0 29 -205 309 -238 324 -45 21 -61 12 -164 -95 -303 -314
-640 -476 -1071 -516 -213 -19 -423 7 -650 82 -256 86 -487 234 -669 430 -525
567 -592 1393 -164 2035 452 676 1347 915 2079 555 320 -158 602 -441 751
-753 123 -257 183 -568 161 -830 l-7 -87 -164 0 c-125 0 -172 -4 -193 -14 -54
-28 -80 -95 -58 -149 8 -18 68 -104 134 -192 66 -88 179 -239 251 -336 72 -97
138 -182 147 -189 9 -7 40 -15 68 -18 41 -3 57 0 77 16 41 32 534 699 544 735
12 44 -13 101 -56 127 -28 17 -50 20 -156 20 l-123 0 7 113 c18 322 -61 695
-216 1012 -113 232 -236 401 -431 591 -360 349 -807 547 -1320 583 -79 6 -151
10 -159 9 -8 0 -70 -5 -137 -9z"/>
<path d="M2112 3365 c-124 -28 -208 -98 -244 -203 -9 -28 -13 -223 -16 -799
l-3 -763 176 0 175 0 0 330 0 330 123 0 122 0 174 -330 173 -330 200 0 c186 0
200 1 193 18 -3 9 -89 166 -191 349 -101 182 -184 335 -184 340 0 4 25 21 55
37 65 33 165 136 199 204 42 83 59 160 59 262 0 260 -139 461 -372 538 -72 24
-90 26 -326 28 -189 3 -265 0 -313 -11z m554 -340 c129 -80 146 -290 33 -403
-63 -64 -74 -67 -296 -70 l-203 -3 0 201 c0 220 6 249 56 289 27 21 35 22 194
19 166 -3 167 -3 216 -33z"/>
</g>
</svg>
