<svg width="40" height="40" viewBox="0 0 40 40" fill="none" xmlns="http://www.w3.org/2000/svg">
<path fill-rule="evenodd" clip-rule="evenodd" d="M7.99995 29.8C7.55812 29.8 7.19995 29.4418 7.19995 29V13.5484C7.19995 13.1066 7.55812 12.7484 7.99994 12.7484L10.2 12.7484V12C10.2 11.7878 10.2842 11.5843 10.4343 11.4343C10.5843 11.2842 10.7878 11.1999 11 11.2L14 11.2C14.4418 11.2 14.8 11.5582 14.8 12V12.7484H25.2V12C25.2 11.5582 25.5581 11.2 26 11.2H29C29.4418 11.2 29.7999 11.5582 29.7999 12V12.7484H32C32.4418 12.7484 32.7999 13.1066 32.7999 13.5484V29C32.7999 29.4418 32.4418 29.8 32 29.8H7.99995ZM11 12V13.5483L7.99995 13.5484V29H32V13.5484H29V12H26V13.5484H14V12L11 12Z" fill="black"/>
<path fill-rule="evenodd" clip-rule="evenodd" d="M12.1 17.6V16H12.9V17.6H14.5V18.4H12.9V20H12.1V18.4H10.5V17.6H12.1ZM29.5 18.4H25.5V17.6H29.5V18.4Z" fill="black"/>
</svg>
