<svg width="40" height="40" viewBox="0 0 40 40" fill="none" xmlns="http://www.w3.org/2000/svg">
<path fill-rule="evenodd" clip-rule="evenodd" d="M12.0001 9.89998C11.1164 9.89998 10.4001 10.6163 10.4001 11.5V32C10.4001 32.8836 11.1164 33.6 12.0001 33.6H28.0001C28.8838 33.6 29.6001 32.8836 29.6001 32V18.4031C29.6001 17.5856 29.3219 16.7925 28.8112 16.1542L24.8887 11.2511C24.2055 10.3971 23.1712 9.89998 22.0776 9.89998H12.0001ZM9.6001 11.5C9.6001 10.1745 10.6746 9.09998 12.0001 9.09998H22.0776C23.4142 9.09998 24.6784 9.70757 25.5134 10.7513L29.4359 15.6544C30.0601 16.4346 30.4001 17.404 30.4001 18.4031V32C30.4001 33.3255 29.3256 34.4 28.0001 34.4H12.0001C10.6746 34.4 9.6001 33.3255 9.6001 32V11.5Z" fill="black"/>
<path fill-rule="evenodd" clip-rule="evenodd" d="M11.6001 6.09998H17.9001V9.49998H17.1001V6.89998H12.4001V9.49998H11.6001V6.09998Z" fill="black"/>
<path fill-rule="evenodd" clip-rule="evenodd" d="M19.45 13.8628C18.7308 12.9438 19.3855 11.6 20.5525 11.6H21.5633C22.2756 11.6 22.9511 11.9164 23.407 12.4635L27.3438 17.1876C27.7032 17.6189 27.9001 18.1626 27.9001 18.7241V20.5996C27.9001 21.9305 26.2178 22.5106 25.3976 21.4625L19.45 13.8628ZM20.5525 12.4C20.0524 12.4 19.7718 12.9759 20.08 13.3698L26.0276 20.9694C26.3791 21.4186 27.1001 21.17 27.1001 20.5996V18.7241C27.1001 18.3498 26.9688 17.9873 26.7292 17.6998L22.7925 12.9757C22.4885 12.6109 22.0382 12.4 21.5633 12.4H20.5525Z" fill="black"/>
</svg>
