<svg width="40" height="40" viewBox="0 0 40 40" fill="none" xmlns="http://www.w3.org/2000/svg">
<rect x="19.8491" y="6.70711" width="20" height="20" transform="rotate(45 19.8491 6.70711)" stroke="black"/>
<path d="M15.675 23.7L16.319 22.466V25.319C16.319 25.667 16.536 25.985 16.845 26.139C17.399 26.41 18.399 26.774 19.757 26.774C20.975 26.774 21.873 26.481 22.43 26.223C22.823 26.042 23.073 25.651 23.073 25.223V22.466L23.108 22.529L23.719 23.67C24.739 22.75 25.365 21.484 25.365 20.086C25.365 17.278 22.823 15 19.688 15C16.551 15 14 17.278 14 20.086C14.003 21.5 14.636 22.779 15.675 23.7ZM20.399 20.704C20.399 20.529 20.553 20.447 20.729 20.447H22.756C22.932 20.447 23.071 20.529 23.071 20.704V20.705C23.071 21.583 22.467 22.299 21.732 22.299C21.001 22.299 20.399 21.582 20.399 20.704ZM19.692 22.178C19.79 22.178 19.883 22.219 19.949 22.292L20.746 23.189L20.359 23.531L19.917 23.307C19.779 23.235 19.616 23.237 19.479 23.309L19.058 23.53L18.667 23.192L19.438 22.296C19.503 22.221 19.594 22.178 19.692 22.178ZM16.462 20.704C16.462 20.529 16.578 20.447 16.753 20.447H18.782C18.958 20.447 19.133 20.529 19.133 20.705C19.133 21.583 18.531 22.299 17.796 22.299C17.063 22.299 16.461 21.582 16.462 20.704Z" fill="black"/>
</svg>
